<?xml version="1.0" standalone="no"?>
<!DOCTYPE svg PUBLIC "-//W3C//DTD SVG 20010904//EN"
 "http://www.w3.org/TR/2001/REC-SVG-20010904/DTD/svg10.dtd">
<svg version="1.0" xmlns="http://www.w3.org/2000/svg"
 width="225.000000pt" height="225.000000pt" viewBox="0 0 225.000000 225.000000"
 preserveAspectRatio="xMidYMid meet">

<g transform="translate(0.000000,225.000000) scale(0.100000,-0.100000)"
fill="#000000" stroke="none">
<path d="M930 2081 c-255 -55 -475 -205 -621 -425 -295 -446 -167 -1053 286
-1348 106 -69 214 -113 345 -140 133 -28 317 -21 445 17 338 98 582 342 680
680 38 128 45 312 17 445 -82 395 -376 690 -767 771 -115 24 -271 24 -385 0z
m439 -51 c327 -94 567 -335 663 -666 20 -69 23 -101 22 -244 0 -150 -3 -173
-27 -253 -60 -195 -184 -377 -328 -483 l-49 -36 -73 12 c-152 25 -174 31 -194
53 -33 36 -43 63 -43 117 0 49 3 56 50 107 53 58 120 164 140 224 10 27 22 39
46 48 46 16 74 61 81 124 6 57 -14 95 -52 101 -11 2 -19 10 -18 17 1 8 7 50
13 94 5 44 14 113 20 154 11 83 1 169 -26 226 -43 91 -217 207 -361 241 -103
24 -176 15 -249 -31 -32 -20 -72 -50 -89 -65 -17 -15 -47 -30 -67 -33 -116
-17 -195 -107 -227 -255 -22 -103 -10 -206 33 -292 l23 -46 -29 -26 c-22 -20
-28 -34 -28 -67 0 -60 31 -115 79 -138 28 -13 42 -28 51 -53 19 -56 85 -163
134 -217 43 -48 46 -54 46 -108 0 -59 -9 -85 -43 -122 -20 -22 -42 -28 -194
-53 l-73 -12 -48 35 c-149 110 -276 301 -334 503 -20 69 -23 101 -22 244 0
149 3 173 27 253 106 348 391 603 744 667 86 16 319 4 402 -20z m-129 -541
c55 -25 86 -53 110 -99 58 -115 19 -220 -119 -320 -57 -42 -61 -47 -61 -84 0
-46 -23 -76 -58 -76 -46 0 -62 26 -62 97 0 73 5 80 116 158 98 69 118 144 52
200 -49 42 -133 31 -182 -24 -27 -30 -70 -27 -95 5 -20 25 -20 27 -3 56 52 90
201 133 302 87z m-76 -640 c11 -16 12 -27 4 -45 -20 -44 -89 -44 -110 1 -9 21
-8 28 7 45 25 27 79 27 99 -1z"/>
</g>
</svg>
